<svg width="56" height="56" viewBox="0 0 56 56" fill="none" xmlns="http://www.w3.org/2000/svg">
<path d="M17.2224 2.50496C17.8431 2.50182 18.4588 2.62223 19.0322 2.85928C19.6057 3.09634 20.1256 3.44502 20.5623 3.88464L42.6178 25.8342C43.5029 26.716 44 27.9113 44 29.158C44 30.4041 43.5029 31.5995 42.6178 32.4818L20.5623 54.2431C19.6737 54.8162 18.6182 55.076 17.564 54.9807C16.5097 54.8855 15.5178 54.4408 14.7478 53.7178C13.9777 52.9949 13.4742 52.0356 13.3173 50.9937C13.1604 49.9518 13.3595 48.8877 13.8826 47.9718L32.7874 29.158L13.8826 10.3441C12.9972 9.46172 12.5 8.26641 12.5 7.0203C12.5 5.77356 12.9972 4.57825 13.8826 3.69651C14.7944 2.87685 15.9949 2.44851 17.2224 2.50496Z" fill="black"/>
</svg>
