<svg width="56" height="56" viewBox="0 0 56 56" fill="none" xmlns="http://www.w3.org/2000/svg">
<path d="M39.0276 54.245C38.4069 54.2482 37.7912 54.1278 37.2178 53.8907C36.6443 53.6537 36.1244 53.305 35.6877 52.8654L13.6322 30.9158C12.7471 30.034 12.25 28.8387 12.25 27.592C12.25 26.3459 12.7471 25.1505 13.6322 24.2682L35.6877 2.5069C36.5763 1.93377 37.6318 1.67401 38.686 1.76927C39.7403 1.86447 40.7322 2.30923 41.5022 3.03219C42.2723 3.75515 42.7758 4.71441 42.9327 5.75632C43.0896 6.79824 42.8905 7.86235 42.3674 8.77822L23.4626 27.592L42.3674 46.4059C43.2528 47.2883 43.75 48.4836 43.75 49.7297C43.75 50.9764 43.2528 52.1717 42.3674 53.0535C41.4556 53.8732 40.2551 54.3015 39.0276 54.245Z" fill="black"/>
</svg>
