<svg width="184" height="45" viewBox="0 0 184 45" fill="none" xmlns="http://www.w3.org/2000/svg">
<path d="M6.21 43.5696C8.101 44.3773 10.0424 44.4811 12.0998 44.4822C19.2726 44.4856 26.4454 44.4856 33.6182 44.4822C34.5421 44.4811 35.3591 44.4123 36.2255 44.291C38.5187 43.9697 40.4371 42.956 41.9807 41.25C43.1263 39.9839 43.8525 38.5868 44.1595 37.059C44.3842 35.9442 44.4969 34.6599 44.4976 33.2061C44.501 26.0874 44.501 18.9688 44.4976 11.8501C44.4966 10.5562 44.4524 9.51719 44.253 8.38773C43.5377 4.33647 40.396 1.30059 36.3283 0.704516C35.4095 0.570227 34.7072 0.502741 34.2215 0.502055C26.6999 0.499315 19.1788 0.499315 11.6579 0.502055C10.5038 0.503083 9.55727 0.570913 8.50489 0.742542C4.40019 1.41364 1.3376 4.5379 0.712744 8.64466C0.580511 9.51205 0.514051 10.2654 0.513366 10.9046C0.511996 18.4412 0.507542 25.9778 0.500005 33.5144C0.49932 34.3674 0.564065 35.2577 0.694242 36.1854C1.15158 39.4474 3.16179 42.2685 6.21 43.5696Z" stroke="#EB8C8D" stroke-width="0.205543"/>
<path d="M24.0635 9.39289C24.1776 8.989 24.415 8.76393 24.677 8.45664C24.9093 8.1843 24.9042 7.84412 24.6061 7.62008C23.3523 6.68075 21.4171 6.64478 20.1962 7.67249C19.8745 7.94381 19.9639 8.26035 20.2373 8.54503C20.4805 8.79784 20.67 9.08903 20.8056 9.41858C20.8084 9.42479 20.8096 9.43154 20.8092 9.43832C20.8089 9.44509 20.8069 9.45172 20.8036 9.45768C20.8002 9.46364 20.7955 9.46877 20.7898 9.47268C20.7841 9.4766 20.7775 9.47919 20.7707 9.48025C14.6887 10.2788 9.9365 14.7463 8.68885 20.7389C8.55833 21.3658 8.48639 22.0153 9.09891 22.3247C9.28733 22.4192 9.65045 22.4665 10.1883 22.4665C18.4772 22.4651 26.7664 22.4648 35.056 22.4655C35.3821 22.4655 35.6102 22.4404 35.7404 22.3904C36.2933 22.1767 36.542 21.6063 36.4362 21.0266C35.2923 14.7874 30.3891 10.2408 24.1026 9.45147C24.0669 9.44736 24.0539 9.42783 24.0635 9.39289Z" stroke="#EB8C8D" stroke-width="0.205543"/>
<path d="M14.0905 27.4621C11.7638 24.12 7.0147 27.3511 9.13899 30.6891C15.3639 40.4689 29.5772 40.5747 35.7815 30.7117C36.0528 30.2794 36.2313 29.9231 36.317 29.6429C36.7003 28.384 36.0898 26.9256 34.9912 26.2915C33.8134 25.6122 32.3736 25.7602 31.3963 26.7232C31.2551 26.8616 31.0307 27.1689 30.7231 27.645C30.0777 28.6447 29.273 29.5035 28.309 30.2215C28.1329 30.3531 27.9582 30.4867 27.7849 30.6223C25.6225 32.3222 22.8919 32.8638 20.2404 32.1721C18.7975 31.796 17.5642 30.9358 16.517 30.1547C15.5345 29.4209 14.8182 28.5063 14.0905 27.4621Z" stroke="#EB8C8D" stroke-width="0.205543"/>
<path d="M33.2626 17.6023C31.7015 13.9693 28.6101 11.4422 24.7439 10.4987C24.3112 10.3929 24.192 10.881 24.6051 11.0845C28.1703 12.8419 31.573 15.997 31.9995 20.1911C32.0489 20.6731 32.1629 20.9804 32.6809 21.003C33.4065 21.0349 34.1002 20.7954 33.9676 19.9219C33.8614 19.221 33.6264 18.4478 33.2626 17.6023Z" stroke="#EB8C8D" stroke-width="0.205543"/>
<path d="M6.21 43.5696C3.16179 42.2685 1.15158 39.4474 0.694242 36.1854C0.564065 35.2577 0.49932 34.3674 0.500005 33.5144C0.507542 25.9778 0.511996 18.4412 0.513366 10.9046C0.514051 10.2654 0.580511 9.51205 0.712744 8.64466C1.3376 4.5379 4.40019 1.41364 8.50489 0.742542C9.55727 0.570913 10.5038 0.503083 11.6579 0.502055C19.1788 0.499315 26.6999 0.499315 34.2215 0.502055C34.7072 0.502741 35.4095 0.570227 36.3283 0.704516C40.396 1.30059 43.5377 4.33647 44.253 8.38773C44.4524 9.51719 44.4966 10.5562 44.4976 11.8501C44.501 18.9688 44.501 26.0874 44.4976 33.2061C44.4969 34.6599 44.3842 35.9442 44.1595 37.059C43.8525 38.5868 43.1263 39.9839 41.9807 41.25C40.4371 42.956 38.5187 43.9697 36.2255 44.291C35.3591 44.4123 34.5421 44.4811 33.6182 44.4822C26.4454 44.4856 19.2726 44.4856 12.0998 44.4822C10.0424 44.4811 8.101 44.3773 6.21 43.5696ZM24.0635 9.39283C24.1776 8.98894 24.415 8.76387 24.677 8.45658C24.9093 8.18424 24.9042 7.84406 24.6061 7.62002C23.3523 6.68069 21.4171 6.64472 20.1962 7.67244C19.8745 7.94375 19.9639 8.26029 20.2373 8.54497C20.4805 8.79779 20.67 9.08897 20.8056 9.41853C20.8084 9.42473 20.8096 9.43148 20.8092 9.43826C20.8089 9.44504 20.8069 9.45166 20.8036 9.45762C20.8002 9.46358 20.7955 9.46871 20.7898 9.47263C20.7841 9.47654 20.7775 9.47913 20.7707 9.48019C14.6887 10.2787 9.9365 14.7462 8.68885 20.7388C8.55833 21.3657 8.48639 22.0153 9.09891 22.3246C9.28733 22.4191 9.65045 22.4664 10.1883 22.4664C18.4772 22.4651 26.7664 22.4647 35.056 22.4654C35.3821 22.4654 35.6102 22.4404 35.7404 22.3904C36.2933 22.1766 36.542 21.6062 36.4362 21.0266C35.2923 14.7873 30.3891 10.2407 24.1025 9.45141C24.0669 9.4473 24.0539 9.42778 24.0635 9.39283ZM14.0905 27.4622C11.7638 24.12 7.0147 27.3512 9.13899 30.6892C15.3639 40.4689 29.5772 40.5748 35.7815 30.7118C36.0528 30.2795 36.2313 29.9232 36.317 29.643C36.7003 28.384 36.0898 26.9257 34.9912 26.2916C33.8134 25.6123 32.3736 25.7603 31.3963 26.7232C31.2551 26.8616 31.0307 27.1689 30.7231 27.6451C30.0777 28.6447 29.273 29.5035 28.309 30.2216C28.1329 30.3531 27.9582 30.4867 27.7849 30.6224C25.6225 32.3222 22.8919 32.8638 20.2404 32.1722C18.7975 31.796 17.5642 30.9358 16.517 30.1548C15.5345 29.421 14.8182 28.5063 14.0905 27.4622Z" fill="#F03328"/>
<path d="M24.1026 9.45147C30.3891 10.2408 35.2923 14.7874 36.4362 21.0266C36.542 21.6063 36.2933 22.1767 35.7404 22.3904C35.6102 22.4404 35.3821 22.4655 35.056 22.4655C26.7664 22.4648 18.4772 22.4651 10.1883 22.4665C9.65045 22.4665 9.28733 22.4192 9.09891 22.3247C8.48639 22.0153 8.55833 21.3658 8.68885 20.7389C9.9365 14.7463 14.6887 10.2788 20.7707 9.48025C20.7775 9.47919 20.7841 9.4766 20.7898 9.47268C20.7955 9.46877 20.8002 9.46364 20.8036 9.45768C20.8069 9.45172 20.8089 9.44509 20.8092 9.43832C20.8096 9.43154 20.8084 9.42479 20.8056 9.41858C20.67 9.08903 20.4805 8.79784 20.2373 8.54503C19.9639 8.26035 19.8745 7.94381 20.1962 7.67249C21.4171 6.64478 23.3523 6.68075 24.6061 7.62008C24.9042 7.84412 24.9093 8.1843 24.677 8.45664C24.415 8.76393 24.1776 8.989 24.0635 9.39289C24.0539 9.42783 24.0669 9.44736 24.1026 9.45147ZM33.2626 17.6023C31.7015 13.9693 28.6101 11.4422 24.7439 10.4987C24.3112 10.3929 24.192 10.881 24.6051 11.0845C28.1703 12.8419 31.573 15.997 31.9995 20.1911C32.0489 20.6731 32.1629 20.9804 32.6809 21.003C33.4065 21.0349 34.1002 20.7954 33.9676 19.9219C33.8614 19.2209 33.6264 18.4478 33.2626 17.6023Z" fill="#F8F8F8"/>
<path d="M33.2626 17.6023C33.6264 18.4478 33.8614 19.221 33.9676 19.9219C34.1002 20.7954 33.4065 21.0349 32.6809 21.003C32.1629 20.9804 32.0489 20.6731 31.9995 20.1911C31.573 15.997 28.1703 12.8419 24.6051 11.0845C24.192 10.881 24.3112 10.3929 24.7439 10.4987C28.6101 11.4422 31.7015 13.9693 33.2626 17.6023Z" fill="#FF9E0C"/>
<path d="M9.13899 30.6893C7.0147 27.3513 11.7638 24.1201 14.0905 27.4623C14.8182 28.5064 15.5345 29.4211 16.517 30.1549C17.5642 30.936 18.7975 31.7962 20.2404 32.1723C22.8919 32.864 25.6225 32.3223 27.7849 30.6225C27.9582 30.4868 28.1329 30.3532 28.309 30.2217C29.273 29.5037 30.0777 28.6448 30.7231 27.6452C31.0307 27.169 31.2551 26.8617 31.3963 26.7233C32.3736 25.7604 33.8134 25.6124 34.9912 26.2917C36.0898 26.9258 36.7003 28.3841 36.317 29.6431C36.2313 29.9233 36.0528 30.2796 35.7815 30.7119C29.5772 40.5749 15.3639 40.4691 9.13899 30.6893Z" fill="#F8F8F8"/>
<path d="M65.3647 36.8124C64.538 36.8124 63.8847 36.5857 63.4047 36.1324C62.9514 35.6524 62.7247 34.9724 62.7247 34.0924V11.0124C62.7247 10.1324 62.9514 9.4657 63.4047 9.01237C63.8847 8.53237 64.5647 8.29237 65.4447 8.29237H79.4047C80.098 8.29237 80.618 8.4657 80.9647 8.81237C81.3114 9.15904 81.4847 9.65237 81.4847 10.2924C81.4847 10.959 81.3114 11.479 80.9647 11.8524C80.618 12.199 80.098 12.3724 79.4047 12.3724H67.8447V20.3324H78.5647C79.2314 20.3324 79.738 20.5057 80.0847 20.8524C80.458 21.199 80.6447 21.6924 80.6447 22.3324C80.6447 22.999 80.458 23.519 80.0847 23.8924C79.738 24.239 79.2314 24.4124 78.5647 24.4124H67.8447V34.0924C67.8447 35.9057 67.018 36.8124 65.3647 36.8124ZM92.9225 36.8924C90.8958 36.8924 89.1358 36.479 87.6425 35.6524C86.1492 34.8257 84.9892 33.6524 84.1625 32.1324C83.3358 30.5857 82.9225 28.7724 82.9225 26.6924C82.9225 25.119 83.1492 23.719 83.6025 22.4924C84.0825 21.239 84.7625 20.1724 85.6425 19.2924C86.5225 18.3857 87.5758 17.7057 88.8025 17.2524C90.0292 16.7724 91.4025 16.5324 92.9225 16.5324C94.9492 16.5324 96.7092 16.9457 98.2025 17.7724C99.6958 18.599 100.856 19.7724 101.683 21.2924C102.509 22.8124 102.923 24.6124 102.923 26.6924C102.923 28.2657 102.683 29.679 102.203 30.9324C101.749 32.1857 101.083 33.2657 100.203 34.1724C99.3225 35.0524 98.2692 35.7324 97.0425 36.2124C95.8158 36.6657 94.4425 36.8924 92.9225 36.8924ZM92.9225 33.0924C93.9092 33.0924 94.7758 32.8524 95.5225 32.3724C96.2692 31.8924 96.8425 31.1857 97.2425 30.2524C97.6692 29.2924 97.8825 28.1057 97.8825 26.6924C97.8825 24.559 97.4292 22.9724 96.5225 21.9324C95.6158 20.8657 94.4158 20.3324 92.9225 20.3324C91.9358 20.3324 91.0692 20.5724 90.3225 21.0524C89.5758 21.5057 88.9892 22.2124 88.5625 23.1724C88.1625 24.1057 87.9625 25.279 87.9625 26.6924C87.9625 28.799 88.4158 30.399 89.3225 31.4924C90.2292 32.559 91.4292 33.0924 92.9225 33.0924ZM115.969 36.8924C113.943 36.8924 112.183 36.479 110.689 35.6524C109.196 34.8257 108.036 33.6524 107.209 32.1324C106.383 30.5857 105.969 28.7724 105.969 26.6924C105.969 25.119 106.196 23.719 106.649 22.4924C107.129 21.239 107.809 20.1724 108.689 19.2924C109.569 18.3857 110.623 17.7057 111.849 17.2524C113.076 16.7724 114.449 16.5324 115.969 16.5324C117.996 16.5324 119.756 16.9457 121.249 17.7724C122.743 18.599 123.903 19.7724 124.729 21.2924C125.556 22.8124 125.969 24.6124 125.969 26.6924C125.969 28.2657 125.729 29.679 125.249 30.9324C124.796 32.1857 124.129 33.2657 123.249 34.1724C122.369 35.0524 121.316 35.7324 120.089 36.2124C118.863 36.6657 117.489 36.8924 115.969 36.8924ZM115.969 33.0924C116.956 33.0924 117.823 32.8524 118.569 32.3724C119.316 31.8924 119.889 31.1857 120.289 30.2524C120.716 29.2924 120.929 28.1057 120.929 26.6924C120.929 24.559 120.476 22.9724 119.569 21.9324C118.663 20.8657 117.463 20.3324 115.969 20.3324C114.983 20.3324 114.116 20.5724 113.369 21.0524C112.623 21.5057 112.036 22.2124 111.609 23.1724C111.209 24.1057 111.009 25.279 111.009 26.6924C111.009 28.799 111.463 30.399 112.369 31.4924C113.276 32.559 114.476 33.0924 115.969 33.0924Z" fill="#F03328"/>
<path d="M137.616 36.8924C135.91 36.8924 134.403 36.479 133.096 35.6524C131.816 34.8257 130.816 33.6524 130.096 32.1324C129.376 30.5857 129.016 28.7724 129.016 26.6924C129.016 24.5857 129.376 22.7857 130.096 21.2924C130.816 19.7724 131.816 18.599 133.096 17.7724C134.403 16.9457 135.91 16.5324 137.616 16.5324C139.243 16.5324 140.656 16.9324 141.856 17.7324C143.083 18.5324 143.91 19.5857 144.336 20.8924H143.896V10.4924C143.896 9.6657 144.11 9.03904 144.536 8.61237C144.963 8.1857 145.576 7.97237 146.376 7.97237C147.176 7.97237 147.79 8.1857 148.216 8.61237C148.67 9.03904 148.896 9.6657 148.896 10.4924V34.2524C148.896 35.079 148.683 35.719 148.256 36.1724C147.83 36.599 147.216 36.8124 146.416 36.8124C145.616 36.8124 145.003 36.599 144.576 36.1724C144.15 35.719 143.936 35.079 143.936 34.2524V31.1324L144.376 32.3324C143.976 33.719 143.163 34.8257 141.936 35.6524C140.71 36.479 139.27 36.8924 137.616 36.8924ZM139.016 33.0924C140.003 33.0924 140.87 32.8524 141.616 32.3724C142.363 31.8924 142.936 31.1857 143.336 30.2524C143.763 29.2924 143.976 28.1057 143.976 26.6924C143.976 24.559 143.523 22.9724 142.616 21.9324C141.71 20.8657 140.51 20.3324 139.016 20.3324C138.03 20.3324 137.163 20.5724 136.416 21.0524C135.67 21.5057 135.083 22.2124 134.656 23.1724C134.256 24.1057 134.056 25.279 134.056 26.6924C134.056 28.799 134.51 30.399 135.416 31.4924C136.323 32.559 137.523 33.0924 139.016 33.0924ZM156.561 36.7724C155.761 36.7724 155.147 36.5324 154.721 36.0524C154.294 35.5724 154.081 34.9057 154.081 34.0524V19.3724C154.081 18.4924 154.294 17.8257 154.721 17.3724C155.147 16.8924 155.761 16.6524 156.561 16.6524C157.361 16.6524 157.974 16.8924 158.401 17.3724C158.854 17.8257 159.081 18.4924 159.081 19.3724V34.0524C159.081 34.9057 158.867 35.5724 158.441 36.0524C158.014 36.5324 157.387 36.7724 156.561 36.7724ZM156.561 12.9324C155.627 12.9324 154.894 12.7057 154.361 12.2524C153.854 11.7724 153.601 11.119 153.601 10.2924C153.601 9.43904 153.854 8.7857 154.361 8.33237C154.894 7.87904 155.627 7.65237 156.561 7.65237C157.521 7.65237 158.254 7.87904 158.761 8.33237C159.267 8.7857 159.521 9.43904 159.521 10.2924C159.521 11.119 159.267 11.7724 158.761 12.2524C158.254 12.7057 157.521 12.9324 156.561 12.9324ZM173.916 36.8924C171.703 36.8924 169.796 36.479 168.196 35.6524C166.596 34.8257 165.356 33.6524 164.476 32.1324C163.623 30.6124 163.196 28.8124 163.196 26.7324C163.196 24.7057 163.609 22.9324 164.436 21.4124C165.289 19.8924 166.449 18.7057 167.916 17.8524C169.409 16.9724 171.103 16.5324 172.996 16.5324C174.383 16.5324 175.623 16.759 176.716 17.2124C177.836 17.6657 178.783 18.319 179.556 19.1724C180.356 20.0257 180.956 21.0657 181.356 22.2924C181.783 23.4924 181.996 24.8524 181.996 26.3724C181.996 26.8524 181.823 27.2257 181.476 27.4924C181.156 27.7324 180.689 27.8524 180.076 27.8524H167.236V24.9724H178.476L177.836 25.5724C177.836 24.3457 177.649 23.319 177.276 22.4924C176.929 21.6657 176.409 21.039 175.716 20.6124C175.049 20.159 174.209 19.9324 173.196 19.9324C172.076 19.9324 171.116 20.199 170.316 20.7324C169.543 21.239 168.943 21.9724 168.516 22.9324C168.116 23.8657 167.916 24.9857 167.916 26.2924V26.5724C167.916 28.759 168.423 30.399 169.436 31.4924C170.476 32.559 171.996 33.0924 173.996 33.0924C174.689 33.0924 175.463 33.0124 176.316 32.8524C177.196 32.6657 178.023 32.359 178.796 31.9324C179.356 31.6124 179.849 31.479 180.276 31.5324C180.703 31.559 181.036 31.7057 181.276 31.9724C181.543 32.239 181.703 32.5724 181.756 32.9724C181.809 33.3457 181.729 33.7324 181.516 34.1324C181.329 34.5324 180.996 34.879 180.516 35.1724C179.583 35.759 178.503 36.199 177.276 36.4924C176.076 36.759 174.956 36.8924 173.916 36.8924Z" fill="#FF9E0C"/>
</svg>
